#!OML:ASF F:\VICON\USERDATA\INSTALL\rory3\rory3.ASF
:FULLY-SPECIFIED
:DEGREES
657
root 4.3769 15.5779 2.03331 23.2021 -6.50308 1.04939
lowerback 12.4563 -2.52696 3.44805
upperback 4.02035 -2.92704 -0.384818
thorax -2.94844 -1.44564 -1.90708
lowerneck -15.1005 -0.608547 -1.66835
upperneck 37.8302 0.691739 -3.12813
head 16.0041 -0.433045 -0.948844
rclavicle 1.2424e-014 -9.93923e-016
rhumerus -61.3064 62.0177 -58.9912
rradius 68.4687
rwrist -18.7734
rhand -6.07225 -39.2611
rfingers 7.12502
rthumb 19.7629 -68.2765
lclavicle 1.2424e-014 -9.93923e-016
lhumerus -44.0159 -73.7332 39.2269
lradius 64.8021
lwrist 44.2671
lhand -13.9924 -27.0567
lfingers 7.12502
lthumb 12.1364 2.57131
rfemur -82.792 -6.70111 22.669
rtibia 44.4227
rfoot 38.0682 -1.2019
rtoes 5.93041
lfemur -58.7898 -4.08649 -29.894
ltibia 62.5325
lfoot -25.0329 7.76794
ltoes 11.3764
658
root 4.3714 15.5756 2.03459 23.2148 -6.58361 1.16513
lowerback 12.4613 -2.66565 3.14623
upperback 3.84868 -3.13785 -0.252511
thorax -3.121 -1.55397 -1.56278
lowerneck -14.5121 -0.426921 -2.03436
upperneck 37.6399 1.06029 -3.16551
head 15.7718 -0.334225 -0.828217
rclavicle 1.63003e-014 -7.95139e-016
rhumerus -61.0779 62.8413 -58.8147
rradius 68.5221
rwrist -18.7513
rhand -5.92031 -39.4583
rfingers 7.12502
rthumb 19.909 -68.4585
lclavicle 1.63003e-014 -7.95139e-016
lhumerus -47.0653 -73.3689 42.2705
lradius 64.7638
lwrist 43.9141
lhand -14.4301 -27.102
lfingers 7.12502
lthumb 11.7144 2.55046
rfemur -82.7413 -6.66731 22.5293
rtibia 44.3315
rfoot 38.0353 -1.43142
rtoes 6.24042
lfemur -58.784 -4.05447 -30.0317
ltibia 62.5191
lfoot -25.064 7.59896
ltoes 12.2326
659
root 4.36052 15.5675 2.03805 23.2813 -6.69572 1.30747
lowerback 12.4569 -2.64654 2.86981
upperback 3.80303 -3.14529 -0.236013
thorax -3.15185 -1.55817 -1.38851
lowerneck -14.3978 -0.384623 -2.20639
upperneck 37.4877 1.14021 -3.09099
head 15.668 -0.312104 -0.748078
rclavicle 4.91992e-014 -2.72335e-014
rhumerus -60.9905 62.9965 -58.8037
rradius 68.5315
rwrist -18.5624
rhand -5.64878 -39.6564
rfingers 7.12502
rthumb 20.17 -68.6293
lclavicle 4.91992e-014 -2.72335e-014
lhumerus -47.6024 -73.2358 42.8617
lradius 64.8068
lwrist 43.8657
lhand -15.303 -27.3633
lfingers 7.12502
lthumb 10.8725 2.33528
rfemur -82.8032 -6.52843 22.271
rtibia 44.2832
rfoot 38.0299 -1.95479
rtoes 6.87981
lfemur -58.8597 -3.98923 -30.1875
ltibia 62.5257
lfoot -25.0584 7.45098
ltoes 12.1851
660
root 4.35192 15.5662 2.03441 23.352 -6.68232 1.30881
lowerback 12.5637 -2.62949 2.81743
upperback 3.7046 -3.1227 -0.195427
thorax -3.30697 -1.54934 -1.31324
lowerneck -14.2316 -0.357475 -2.23872
upperneck 37.4192 1.19313 -3.12056
head 15.5948 -0.296001 -0.743658
rclavicle -3.32964e-014 2.38542e-015
rhumerus -61.3076 62.9202 -59.1567
rradius 68.5455
rwrist -18.5242
rhand -5.72554 -39.6079
rfingers 7.12502
rthumb 20.0962 -68.5885
lclavicle -3.32964e-014 2.38542e-015
lhumerus -47.7966 -73.3844 43.109
lradius 64.9313
lwrist 44.3132
lhand -15.7334 -27.2962
lfingers 7.12502
lthumb 10.4573 2.4237
rfemur -82.8447 -6.39734 22.1378
rtibia 44.2582
rfoot 38.0372 -2.46261
rtoes 7.46393
lfemur -58.9649 -4.01057 -30.1228
ltibia 62.5157
lfoot -25.0483 7.44908
ltoes 11.4914
661
root 4.3501 15.57 2.03239 23.3613 -6.52054 1.26381
lowerback 12.6153 -2.6555 2.99309
upperback 3.63353 -3.1302 -0.148004
thorax -3.41603 -1.55522 -1.357
lowerneck -14.0137 -0.357083 -2.30893
upperneck 37.4405 1.20638 -3.11896
head 15.5534 -0.298289 -0.727408
rclavicle 1.89839e-014 -7.65321e-015
rhumerus -61.7578 62.8417 -59.5873
rradius 68.4593
rwrist -18.5762
rhand -6.29239 -38.8872
rfingers 7.12502
rthumb 19.5513 -67.9241
lclavicle 1.89839e-014 -7.65321e-015
lhumerus -47.7611 -73.5063 43.168
lradius 65.0132
lwrist 44.6131
lhand -15.4372 -27.0077
lfingers 7.12502
lthumb 10.743 2.69755
rfemur -82.7998 -6.49692 22.2153
rtibia 44.2817
rfoot 37.9619 -2.40383
rtoes 7.3935
lfemur -58.9523 -4.17477 -29.9759
ltibia 62.4928
lfoot -25.0909 7.40019
ltoes 11.9075
662
root 4.35055 15.5752 2.03611 23.3309 -6.38072 1.27034
lowerback 12.608 -2.72015 3.10292
upperback 3.63376 -3.19979 -0.106843
thorax -3.41847 -1.58981 -1.36492
lowerneck -13.9577 -0.35684 -2.4803
upperneck 37.519 1.21088 -2.99279
head 15.5778 -0.304566 -0.643503
rclavicle -9.14409e-015 2.03754e-014
rhumerus -61.8489 63.0314 -59.7281
rradius 68.3295
rwrist -18.6278
rhand -6.33728 -38.2545
rfingers 7.12502
rthumb 19.5081 -67.2959
lclavicle -9.14409e-015 2.03754e-014
lhumerus -47.6676 -73.2254 43.1177
lradius 64.9981
lwrist 44.3294
lhand -15.1848 -27.0796
lfingers 7.12502
lthumb 10.9866 2.61295
rfemur -82.7376 -6.69667 22.344
rtibia 44.3463
rfoot 37.9992 -1.9769
rtoes 6.87087
lfemur -58.8423 -4.34185 -29.9151
ltibia 62.439
lfoot -25.1259 7.3713
ltoes 11.2072
